<?xml version="1.0" encoding="iso-8859-1"?>
<!-- Generator: Adobe Illustrator 23.0.3, SVG Export Plug-In . SVG Version: 6.00 Build 0)  -->
<svg fill="#FFFFFF" version="1.1" xmlns="http://www.w3.org/2000/svg" xmlns:xlink="http://www.w3.org/1999/xlink" x="0px" y="0px"
	 viewBox="0 0 50 50" style="enable-background:new 0 0 50 50;" xml:space="preserve">
<g id="Layer_10" style="display:none;">
</g>
<g id="filled">
</g>
<g id="outlined">
</g>
<g id="rounded">
</g>
<g id="two_x5F_tone">
</g>
<g id="sharp">
</g>
<g id="win10">
</g>
<g id="ios_x5F_out">
	<path style="fill:none;stroke:#efefff;stroke-width:2;stroke-linejoin:round;stroke-miterlimit:10;" d="M36,32h-4v-7.806
		c-0.093-1.375-0.721-2.055-1.981-2.194c-1.429-0.158-2.479,0.481-2.805,1.781c-0.145,0.58-0.208,1.193-0.214,1.792L27,32h-4
		c0,0,0.011-7.271,0-7.55c-0.066-1.602-0.69-2.341-2.042-2.45c-1.419-0.114-2.553,0.744-2.843,2.133
		c-0.094,0.451-0.113,0.923-0.115,1.385C17.99,28.118,18,32,18,32h-4V18h4v2c1.251-1.5,2.352-2.48,4.153-2.449
		c1.777,0.03,3.335,0.489,4.196,2.207c0.566-0.485,1.058-0.99,1.629-1.384c2.373-1.634,6.293-0.854,7.465,1.507
		C35.746,20.491,36,21.12,36,22V32z"/>
	
		<polyline style="fill:none;stroke:#efefff;stroke-width:2;stroke-linecap:round;stroke-linejoin:round;stroke-miterlimit:10;" points="
		42,44 45,44 45,6 42,6 	"/>
	
		<polyline style="fill:none;stroke:#efefff;stroke-width:2;stroke-linecap:round;stroke-linejoin:round;stroke-miterlimit:10;" points="
		8,6 5,6 5,44 8,44 	"/>
</g>
<g id="ios_x5F_filled">
</g>
<g id="color">
</g>
</svg>